<?xml version="1.0" standalone="no"?>
<svg xmlns="http://www.w3.org/2000/svg" viewBox="0 0 1440 320">
    <defs>
        <linearGradient id="waveGradient" x1="0%" y1="0%" x2="100%" y2="0%">
          <stop offset="51%" stop-color="rgba(10, 27, 36, 1)" />
          <stop offset="100%" stop-color="rgba(0, 64, 128, 1)" />
        </linearGradient>
      </defs>
    <path fill="url(#waveGradient)" fill-opacity="1"
        d="M0,160L20,170.7C40,181,80,203,120,181.3C160,160,200,96,240,112C280,128,320,224,360,245.3C400,267,440,213,480,160C520,107,560,53,600,48C640,43,680,85,720,90.7C760,96,800,64,840,69.3C880,75,920,117,960,138.7C1000,160,1040,160,1080,138.7C1120,117,1160,75,1200,90.7C1240,107,1280,181,1320,213.3C1360,245,1400,235,1420,229.3L1440,224L1440,0L1420,0C1400,0,1360,0,1320,0C1280,0,1240,0,1200,0C1160,0,1120,0,1080,0C1040,0,1000,0,960,0C920,0,880,0,840,0C800,0,760,0,720,0C680,0,640,0,600,0C560,0,520,0,480,0C440,0,400,0,360,0C320,0,280,0,240,0C200,0,160,0,120,0C80,0,40,0,20,0L0,0Z"></path>
</svg>