<?xml version="1.0" standalone="no"?><svg xmlns="http://www.w3.org/2000/svg" viewBox="0 0 1440 320"><path fill="#0073e6" fill-opacity="0.93" d="M0,160L40,181.3C80,203,160,245,240,266.7C320,288,400,288,480,272C560,256,640,224,720,229.3C800,235,880,277,960,277.3C1040,277,1120,235,1200,208C1280,181,1360,171,1400,165.3L1440,160L1440,320L1400,320C1360,320,1280,320,1200,320C1120,320,1040,320,960,320C880,320,800,320,720,320C640,320,560,320,480,320C400,320,320,320,240,320C160,320,80,320,40,320L0,320Z"></path></svg>