<svg xmlns="http://www.w3.org/2000/svg" viewBox="0 0 1440 320" style="width: 100%; height:800px">
    <defs>
      <linearGradient id="waveGradient" x1="0%" y1="0%" x2="100%" y2="0%">
        <stop offset="51%" stop-color="rgba(10, 27, 36, 1)" />
        <stop offset="100%" stop-color="rgba(0, 64, 128, 1)" />
      </linearGradient>
    </defs>
    <path fill="url(#waveGradient)" fill-opacity="1" d="M0,224L30,234.7C60,245,120,267,180,261.3C240,256,300,224,360,186.7C420,149,480,107,540,112C600,117,660,171,720,192C780,213,840,203,900,165.3C960,128,1020,64,1080,58.7C1140,53,1200,107,1260,154.7C1320,203,1380,245,1410,266.7L1440,288L1440,0L1410,0C1380,0,1320,0,1260,0C1200,0,1140,0,1080,0C1020,0,960,0,900,0C840,0,780,0,720,0C660,0,600,0,540,0C480,0,420,0,360,0C300,0,240,0,180,0C120,0,60,0,30,0L0,0Z"></path>
  </svg>  